<svg width="24" height="24" viewBox="0 0 24 24" fill="none" xmlns="http://www.w3.org/2000/svg">
<path fill-rule="evenodd" clip-rule="evenodd" d="M12.9001 2.99998C12.9001 2.50292 12.4972 2.09998 12.0001 2.09998C11.503 2.09998 11.1001 2.50292 11.1001 2.99998V12.8273L7.6364 9.36357C7.28492 9.0121 6.71508 9.0121 6.3636 9.36357C6.01213 9.71505 6.01213 10.2849 6.3636 10.6364L11.3636 15.6364C11.4588 15.7316 11.5701 15.801 11.6887 15.8447C11.7858 15.8804 11.8907 15.9 12.0001 15.9C12.1465 15.9 12.2847 15.865 12.4068 15.803C12.4514 15.7805 12.4944 15.754 12.5355 15.7235C12.5744 15.6947 12.6109 15.6628 12.6446 15.6282L17.6364 10.6364C17.9879 10.2849 17.9879 9.71505 17.6364 9.36357C17.2849 9.0121 16.7151 9.0121 16.3636 9.36357L12.9001 12.8271V2.99998ZM3.0001 14.1C3.49715 14.1 3.9001 14.5029 3.9001 15V19C3.9001 19.2917 4.01599 19.5715 4.22228 19.7778C4.42857 19.9841 4.70836 20.1 5.0001 20.1H19.0001C19.2918 20.1 19.5716 19.9841 19.7779 19.7778C19.9842 19.5715 20.1001 19.2917 20.1001 19V15C20.1001 14.5029 20.503 14.1 21.0001 14.1C21.4972 14.1 21.9001 14.5029 21.9001 15V19C21.9001 19.7691 21.5946 20.5067 21.0507 21.0506C20.5069 21.5944 19.7692 21.9 19.0001 21.9H5.0001C4.23097 21.9 3.49334 21.5944 2.94949 21.0506C2.40563 20.5067 2.1001 19.7691 2.1001 19V15C2.1001 14.5029 2.50304 14.1 3.0001 14.1Z" fill="#1C1B1F"/>
</svg>
