<svg width="25" height="25" viewBox="0 0 25 25" fill="none" xmlns="http://www.w3.org/2000/svg">
<mask id="mask0_268_950" style="mask-type:alpha" maskUnits="userSpaceOnUse" x="0" y="0" width="25" height="25">
<rect x="0.941895" y="0.445312" width="24" height="24" fill="#D9D9D9"/>
</mask>
<g mask="url(#mask0_268_950)">
<path d="M12.9419 20.4453C12.3896 20.4453 11.9419 19.9976 11.9419 19.4453V8.27031L7.05442 13.1578C6.66193 13.5503 6.02471 13.5475 5.6357 13.1515V13.1515C5.25153 12.7605 5.25431 12.1329 5.64192 11.7453L12.2148 5.17245C12.6163 4.77086 13.2674 4.77086 13.669 5.17245L20.2419 11.7453C20.6295 12.1329 20.6323 12.7605 20.2481 13.1515V13.1515C19.8591 13.5475 19.2219 13.5503 18.8294 13.1578L13.9419 8.27031V19.4453C13.9419 19.9976 13.4942 20.4453 12.9419 20.4453V20.4453Z" fill="#1C1B1F"/>
</g>
</svg>
