<svg width="24" height="24" viewBox="0 0 24 24" fill="none" xmlns="http://www.w3.org/2000/svg">
<mask id="mask0_268_951" style="mask-type:alpha" maskUnits="userSpaceOnUse" x="0" y="0" width="24" height="24">
<rect width="24" height="24" fill="#D9D9D9"/>
</mask>
<g mask="url(#mask0_268_951)">
<path d="M12 20C11.4477 20 11 19.5523 11 19V7.825L6.11253 12.7125C5.72003 13.105 5.08281 13.1021 4.69381 12.7062V12.7062C4.30964 12.3152 4.31242 11.6876 4.70003 11.3L11.2729 4.72714C11.6744 4.32555 12.3256 4.32555 12.7271 4.72714L19.3 11.3C19.6876 11.6876 19.6904 12.3152 19.3062 12.7062V12.7062C18.9172 13.1021 18.28 13.105 17.8875 12.7125L13 7.825V19C13 19.5523 12.5523 20 12 20V20Z" fill="white"/>
</g>
</svg>
